# xmcd
#
# Track frame offsets:
#	150
#	28017
#	48325
#	73295
#	96665
#	117670
#	134092
#	162271
#	183987
#	204221
#	220150
#	239552
#	262365
#	279231
#	302234
#	335968
#
# Disc length: 4741 seconds
#
# Revision: 1
# Processed by: cddbd v1.5.2PL0 Copyright (c) Steve Scherf et al.
# Submitted via: audiograbber 1.83.01
#
DISCID=0c128310
DTITLE=Stevie Wonder - A time to Love
DYEAR=1900
DGENRE=Blues
TTITLE0=If your love annot be moved
TTITLE1=Sweetes somebody I know
TTITLE2=Moon Blue
TTITLE3=From the bottom of my heart
TTITLE4=Please don't hurt my baby
TTITLE5=How will I know
TTITLE6=My love is on fire
TTITLE7=Passionate raindrops
TTITLE8=Tell your heart I love you
TTITLE9=True love
TTITLE10=Shelter in the rain
TTITLE11=So what the fuss
TTITLE12=Can't imagine love without you
TTITLE13=Positivity
TTITLE14=A time to love
TTITLE15=I just call to sy I love you
EXTD=
EXTT0=
EXTT1=
EXTT2=
EXTT3=
EXTT4=
EXTT5=
EXTT6=
EXTT7=
EXTT8=
EXTT9=
EXTT10=
EXTT11=
EXTT12=
EXTT13=
EXTT14=
EXTT15=
PLAYORDER=
